<svg width="1167" height="338" viewBox="0 0 1167 338" fill="none" xmlns="http://www.w3.org/2000/svg">
<path d="M7.33333 6.133C18.4 16.533 18 11.8663 18 121.733V217.6L13.7333 225.6C11.4667 230 7.33333 235.333 4.8 237.466L0 241.333H12.4C37.7333 241.333 110.4 238.4 113.333 237.333C115.733 236.4 117.333 233.466 120.533 223.733C127.067 203.866 135.467 174.266 134.667 173.6C134.267 173.2 130.267 176.533 125.733 180.933C110 195.866 96.2667 201.2 70.4 202.266L54 203.066L54.1333 147.2C54.1333 116.4 54.6667 75.733 55.0667 56.533C56 22.7997 56.1333 21.5997 59.2 17.0663C60.9333 14.533 64.4 11.0663 66.9333 9.33299C69.4667 7.59966 70.9333 5.733 70.4 5.19966C69.4667 4.26633 14.9333 -0.000335693 4.4 -0.000335693C0.8 -0.000335693 0.933333 0.132996 7.33333 6.133Z" fill="url(#paint0_linear_2115_61)"/>
<path d="M1084.93 3.99934C1066.67 8.93266 1054.27 18.3993 1046.8 33.066L1043.33 39.866V107.599C1043.47 187.999 1044.13 199.599 1049.47 209.333C1054.13 217.999 1065.07 227.999 1075.07 232.933C1082.53 236.533 1083.07 236.666 1106 236.666C1129.2 236.666 1129.33 236.666 1137.07 232.799C1146.4 227.999 1156.27 218.799 1161.47 209.999L1165.33 203.333L1165.73 118.266L1166.13 33.3327L1161.87 25.1993C1156.8 15.7327 1150.8 10.1327 1140.8 5.59933C1134.27 2.53267 1131.47 2.13268 1114.13 1.73267C1097.87 1.33267 1093.07 1.73267 1084.93 3.99934ZM1121.6 39.5993C1124.8 41.1993 1127.6 44.1327 1129.33 47.466C1131.87 52.3993 1132 55.3327 1132 119.333C1132 181.866 1131.87 186.266 1129.47 191.066C1124.8 200.533 1108.53 206.266 1095.87 202.799C1088.93 200.933 1081.2 192.799 1079.73 185.733C1079.2 182.933 1078.67 152.399 1078.67 117.999C1078.67 51.1993 1078.93 48.666 1085.2 42.7993C1092.53 35.866 1111.2 34.266 1121.6 39.5993Z" fill="url(#paint1_linear_2115_61)"/>
<path d="M143.334 6.53287C143.334 7.33287 143.867 7.99953 144.534 7.99953C147.067 7.99953 154.134 15.1995 157.067 20.5329C159.867 25.8662 160.001 27.1995 160.401 82.6662C160.667 113.866 160.267 157.333 159.601 179.333C158.267 223.2 157.601 226.533 150.134 231.866C147.867 233.466 146.001 235.466 146.001 236.266C146.001 237.333 162.534 237.466 203.601 236.8C235.334 236.266 261.467 235.6 261.734 235.333C262.401 234.8 275.867 185.6 277.334 178.8L278.267 174.133L269.867 180.8C265.201 184.533 259.201 188.8 256.534 190.4C244.267 197.733 223.867 201.733 205.601 200.4L195.334 199.6V165.866V132H201.067C210.534 132 219.467 135.466 228.267 142.533L236.534 149.2L237.334 140.266C237.734 135.333 239.601 123.066 241.467 113.066C246.001 87.1995 246.401 88.5329 236.401 93.8662C227.467 98.6662 220.001 100.8 205.734 102.4L196.667 103.466V73.0662V42.6662H200.401C202.401 42.6662 210.934 43.3329 219.334 43.9995C244.801 46.2662 252.401 49.5995 260.267 61.9995C262.267 65.3329 264.401 67.9995 265.067 67.9995C265.601 67.9995 266.001 66.1329 266.001 63.7329C266.001 61.4662 267.601 49.0662 269.467 36.2662C272.134 17.1995 272.534 12.6662 271.067 11.8662C270.134 11.1995 264.801 10.6662 259.334 10.6662C249.334 10.6662 182.667 7.4662 157.067 5.8662C147.201 5.19954 143.334 5.33287 143.334 6.53287Z" fill="url(#paint2_linear_2115_61)"/>
<path d="M893.734 7.5994C886.401 8.26607 885.601 9.73274 891.334 11.8661C898.001 14.1327 903.201 18.5327 906.401 24.3994L909.334 29.9994V120.666C909.334 170.533 908.801 214.133 908.267 217.599C907.601 221.199 905.601 225.866 903.201 228.799C901.067 231.466 899.334 234.266 899.334 235.066C899.334 236.799 952.801 235.199 975.734 232.799C995.867 230.533 1004 227.199 1013.2 217.333C1026.93 202.533 1028.53 194.666 1029.47 130.666C1030.67 57.1994 1028.27 37.8661 1015.87 24.1327C1006.93 14.2661 996.667 9.5994 980.001 7.9994C967.467 6.79941 907.601 6.53273 893.734 7.5994ZM975.467 43.9994C981.601 45.7327 987.867 50.7994 991.067 56.5327C993.067 60.2661 993.334 67.1994 993.734 119.599C994.267 176.266 994.134 178.666 991.601 184.533C986.801 195.333 972.801 201.333 952.267 201.333H944.667V120.933V40.5327L957.467 41.5994C964.534 42.1327 972.534 43.1994 975.467 43.9994Z" fill="url(#paint3_linear_2115_61)"/>
<path d="M331.6 14.6665C319.333 17.3332 308.667 25.4665 302.933 36.7998C298.8 44.9332 298 57.5998 298 119.333C298.133 205.467 299.067 213.6 310.933 224C324.667 236 341.467 240 368.267 237.6C381.467 236.4 384.133 235.733 392.667 231.333C405.333 224.533 413.067 215.867 416.667 204.267C419.2 196 419.467 190.8 420.267 140.666C421.2 74.5332 419.733 46.6665 414.933 37.4665C411.067 29.8665 400.533 21.1998 390.4 17.3332C383.733 14.6665 379.733 14.2665 360 13.8665C347.6 13.5998 334.8 13.9998 331.6 14.6665ZM372.667 49.5998C383.6 55.3332 383.467 54.9332 384.267 96.1332C384.667 116.266 384.267 146.4 383.467 163.2C382.133 191.733 381.867 194 379.2 196.8C374.4 202 366 204.4 355.067 203.867C343.2 203.2 337.467 199.867 335.333 192.267C333.467 185.2 332.267 118.933 333.6 85.7332C334.667 58.2665 334.8 57.4665 338 53.8665C342.8 48.6665 348.133 46.7998 358 46.6665C364.533 46.6665 368.267 47.4665 372.667 49.5998Z" fill="url(#paint4_linear_2115_61)"/>
<path d="M755.733 15.8667C751.2 16.2667 747.066 17.0667 746.533 17.7333C746 18.2667 747.2 20.4 749.2 22.5333C751.6 24.9333 753.2 28.6667 754 33.4667C754.8 37.4667 755.733 82.4 756.133 133.467L757.066 226.4L752 230.8L746.8 235.333L758.133 236.267C768.133 237.067 798 236.267 798 235.2C798 234.933 796.533 232 794.666 228.533L791.333 222.267V182.667V142.933L800.8 138C808.8 133.867 810.533 133.333 812.133 134.8C815.866 138.667 833.733 206.8 834.933 222.267C835.466 228.667 835.2 232.533 834.133 233.733C832.933 235.333 835.333 235.733 848.933 236.4C878.666 238 887.466 237.467 882 234C877.6 231.333 868 204.533 850.533 146.133L841.466 115.6L846.133 112.133C855.066 105.6 865.866 93.2 870.133 84.6667C874.266 76.2667 874.266 75.7333 873.733 61.0667C873.2 49.0667 872.533 44.6667 870.133 39.8667C864.133 27.2 851.866 18.5333 836.533 16C827.6 14.6667 770 14.5333 755.733 15.8667ZM823.466 49.3333C835.466 51.6 841.2 60.2667 838.133 71.7333C835.333 81.7333 818 97.8667 797.733 109.333L790 113.6V80.8V48H803.2C810.4 48 819.466 48.6667 823.466 49.3333Z" fill="url(#paint5_linear_2115_61)"/>
<path d="M442.4 18.2662C440 18.5329 438 19.3329 438 19.8662C438 20.3995 440.133 22.7995 442.667 25.3329L447.333 29.8662V129.333V228.933L444 232C442.133 233.733 440.667 235.733 440.667 236.4C440.667 237.6 487.067 236.666 488.4 235.466C488.667 235.2 487.733 232.933 486.4 230.4C484.267 226.4 484 221.6 483.6 181.333C483.333 156.8 483.333 131.866 483.6 126L484 115.333L490.933 134.666C494.8 145.333 502.8 168 508.667 184.933C514.533 202 521.333 220.533 523.733 226.266L528.133 236.666L548.4 237.066C559.6 237.2 568.667 237.066 568.667 236.666C568.667 236.266 567.6 234.266 566.4 232.4C564.133 229.066 564 221.6 563.6 132.8C563.333 79.8662 563.6 35.3329 564 33.7329C564.4 31.9995 566.533 28.5329 568.8 25.9995C571.2 23.3329 572.8 21.0662 572.533 20.7995C572.267 20.5329 560.4 19.8662 546.4 19.4662C528.533 18.7995 520.667 18.9329 520.667 19.8662C520.667 20.6662 522.8 23.5995 525.333 26.5329L530 31.5995V77.4662C530 102.666 529.467 124.133 528.8 125.2C526.933 128.133 524.933 123.2 510.667 81.3329C496.8 40.6662 490 24.7995 484.667 21.1995C482.133 19.3329 477.467 18.6662 464 18.2662C454.533 17.8662 444.667 17.8662 442.4 18.2662Z" fill="url(#paint6_linear_2115_61)"/>
<path d="M623.199 21.0663C623.866 22.3997 625.466 24.2663 626.532 25.1997C631.466 29.333 631.066 33.4663 617.866 99.333C601.866 179.466 592.932 216.133 585.466 233.466C584.666 235.333 586.532 235.733 599.199 236.533C607.199 236.933 617.999 236.933 623.199 236.533L632.532 235.6L630.666 231.866C629.599 229.866 628.666 225.733 628.666 222.666C628.666 216 631.866 200.266 635.066 190.666C637.199 184.4 638.132 183.333 642.799 181.6C645.599 180.533 655.332 179.466 664.266 179.066L680.532 178.266L681.866 183.466C683.866 190.8 688.666 219.466 688.666 223.733C688.666 225.733 687.732 229.066 686.666 231.2C685.466 233.333 684.932 235.466 685.466 235.866C686.399 236.8 731.066 236.666 731.999 235.733C732.399 235.333 731.199 231.733 729.332 227.733C725.199 218.666 719.866 198.133 712.132 162C702.132 114.933 688.532 45.0663 687.732 36.6663C687.066 29.333 687.332 28.2663 690.532 24.3997C692.399 22.133 693.999 19.8663 693.999 19.4663C693.999 19.0663 677.732 18.6663 657.999 18.6663C623.466 18.6663 621.999 18.7997 623.199 21.0663ZM661.999 85.5997C667.466 109.466 674.132 144.266 673.732 147.2C673.332 150.4 667.466 151.733 652.399 151.866C643.332 152 643.332 152 643.332 148.266C643.332 142.666 653.732 84.133 656.132 75.5997C657.599 70.933 659.199 73.733 661.999 85.5997Z" fill="url(#paint7_linear_2115_61)"/>
<path d="M573.038 279.932C562.507 283.156 553.694 291.538 551.545 300.35C547.999 315.288 556.059 332.053 568.632 335.814C579.056 338.931 593.887 336.244 599.69 330.226L603.129 326.68L598.938 322.596L594.747 318.512L590.34 321.736C584.752 325.82 580.561 326.787 575.94 325.283C571.749 323.886 566.16 318.405 564.548 314.106C561.754 306.906 564.226 297.879 570.137 293.58C574.328 290.463 582.925 290.571 588.836 293.902C593.457 296.589 596.466 296.482 600.335 293.687C603.021 291.646 601.839 288.529 597.003 284.768C590.125 279.609 580.668 277.675 573.038 279.932Z" fill="#E7C389"/>
<path d="M673.625 280.576C671.153 283.155 670.079 285.305 659.117 311.526C653.744 324.422 649.552 335.384 649.875 336.029C650.627 337.211 660.084 337.318 661.804 336.136C662.556 335.706 663.845 333.665 664.705 331.515C666.317 327.646 666.425 327.539 673.732 326.894C677.709 326.572 683.512 326.572 686.413 327.002C691.142 327.754 692.002 328.291 693.614 331.515C696.73 337.856 697.912 338.501 704.038 337.426L709.519 336.459L701.029 315.503C686.736 279.931 687.381 281.006 679.321 279.502C676.419 278.964 675.022 279.287 673.625 280.576ZM683.512 304.004C685.016 307.873 685.876 311.849 685.554 312.816C684.586 315.073 674.27 315.073 673.41 312.816C672.55 310.667 678.246 295.944 679.75 296.481C680.395 296.696 682.115 300.028 683.512 304.004Z" fill="#E7C389"/>
<path d="M356.817 280.791C354.99 281.114 353.808 282.081 353.378 283.585C353.055 284.875 352.518 297.448 352.088 311.419L351.336 336.996H371.432H391.528L391.206 331.838L390.884 326.787L378.955 326.464L367.133 326.142L365.844 312.494C365.092 304.971 364.554 295.407 364.554 291.108C364.554 285.52 364.124 282.941 362.835 281.758C361.975 280.791 360.9 280.146 360.471 280.146C360.041 280.254 358.429 280.576 356.817 280.791Z" fill="#E7C389"/>
<path d="M441.928 282.403C442.035 291.861 444.185 318.405 445.152 321.844C446.549 327.002 453.856 333.88 459.982 335.707C466.43 337.641 478.251 337.319 483.302 334.955C488.568 332.483 490.61 330.333 493.727 323.563C495.876 318.835 496.198 316.04 496.521 299.061L496.951 280.039H491.147H485.237L484.699 296.589C483.947 316.578 482.657 320.554 475.78 322.811C471.374 324.315 464.818 323.885 461.057 321.844C456.973 319.587 455.576 313.784 455.039 296.374L454.609 280.039H448.268C442.358 280.039 441.928 280.254 441.928 282.403Z" fill="#E7C389"/>
<path d="M776.687 280.683C776.149 280.791 773.785 281.221 771.528 281.65C766.262 282.51 760.352 287.776 758.955 292.827C756.698 301.424 762.179 309.269 773.14 312.816C780.018 315.072 784.961 317.544 786.036 319.156C788.508 322.81 785.069 326.249 779.051 326.249C774.86 326.249 772.28 325.067 765.832 320.338C763.683 318.726 763.361 318.941 759.599 323.025C756.268 326.786 755.838 327.753 756.913 329.58C757.558 330.87 760.782 333.127 764.113 334.631C772.388 338.393 784.209 338.608 790.765 335.169C800.222 330.118 803.768 322.165 799.792 314.535C796.89 308.732 791.839 305.186 783.564 303.036C775.397 300.994 771.851 298.952 771.851 296.266C771.851 291.86 779.158 289.818 785.284 292.29C787.541 293.257 790.335 294.009 791.732 294.009C794.419 294.009 797.643 290.892 797.643 288.313C797.643 285.949 792.699 282.295 788.615 281.758C781.845 280.683 777.761 280.361 776.687 280.683Z" fill="#E7C389"/>
<path d="M35.1688 310.13C20.4459 312.279 7.33502 314.428 6.15289 314.751C4.97076 314.966 10.7739 315.288 19.0489 315.396C27.3238 315.503 85.3556 316.47 148.008 317.652C210.661 318.835 265.469 319.802 269.768 319.802H277.505V312.816V305.831L169.824 305.939L62.0354 306.046L35.1688 310.13Z" fill="#996930"/>
<path d="M871.793 312.709V319.802H881.787C903.925 319.694 1140.67 315.611 1141 315.288C1141.21 315.073 1127.56 313.354 1110.58 311.419C1080.71 308.088 1077.81 307.98 1022.78 307.443C991.51 307.121 944.655 306.583 918.863 306.261L871.793 305.616V312.709Z" fill="#996930"/>
<defs>
<linearGradient id="paint0_linear_2115_61" x1="128.004" y1="372.5" x2="245.681" y2="157.486" gradientUnits="userSpaceOnUse">
<stop stop-color="#9BA6AA"/>
<stop offset="1" stop-color="#F7F9FC"/>
<stop offset="1" stop-color="#F9FEFE"/>
</linearGradient>
<linearGradient id="paint1_linear_2115_61" x1="1160.01" y1="364.429" x2="1278.62" y2="161.628" gradientUnits="userSpaceOnUse">
<stop stop-color="#9BA6AA"/>
<stop offset="1" stop-color="#F7F9FC"/>
<stop offset="1" stop-color="#F9FEFE"/>
</linearGradient>
<linearGradient id="paint2_linear_2115_61" x1="271.541" y1="363.16" x2="381.934" y2="152.773" gradientUnits="userSpaceOnUse">
<stop stop-color="#9BA6AA"/>
<stop offset="1" stop-color="#F7F9FC"/>
<stop offset="1" stop-color="#F9FEFE"/>
</linearGradient>
<linearGradient id="paint3_linear_2115_61" x1="1022.65" y1="360.185" x2="1127.59" y2="146.808" gradientUnits="userSpaceOnUse">
<stop stop-color="#9BA6AA"/>
<stop offset="1" stop-color="#F7F9FC"/>
<stop offset="1" stop-color="#F9FEFE"/>
</linearGradient>
<linearGradient id="paint4_linear_2115_61" x1="414.424" y1="360.273" x2="525.196" y2="162.366" gradientUnits="userSpaceOnUse">
<stop stop-color="#9BA6AA"/>
<stop offset="1" stop-color="#F7F9FC"/>
<stop offset="1" stop-color="#F9FEFE"/>
</linearGradient>
<linearGradient id="paint5_linear_2115_61" x1="876.691" y1="358.101" x2="979.084" y2="151.406" gradientUnits="userSpaceOnUse">
<stop stop-color="#9BA6AA"/>
<stop offset="1" stop-color="#F7F9FC"/>
<stop offset="1" stop-color="#F9FEFE"/>
</linearGradient>
<linearGradient id="paint6_linear_2115_61" x1="565.854" y1="356.226" x2="667.052" y2="152.845" gradientUnits="userSpaceOnUse">
<stop stop-color="#9BA6AA"/>
<stop offset="1" stop-color="#F7F9FC"/>
<stop offset="1" stop-color="#F9FEFE"/>
</linearGradient>
<linearGradient id="paint7_linear_2115_61" x1="724.759" y1="355.409" x2="819.86" y2="146.002" gradientUnits="userSpaceOnUse">
<stop stop-color="#9BA6AA"/>
<stop offset="1" stop-color="#F7F9FC"/>
<stop offset="1" stop-color="#F9FEFE"/>
</linearGradient>
</defs>
</svg>
